<svg width="69" height="69" viewBox="0 0 69 69" fill="none" xmlns="http://www.w3.org/2000/svg">
<rect width="68.1507" height="68.1507" rx="20" fill="#00CCCC"/>
<path d="M20.6324 22.2295C20.0042 22.2295 19.4595 22.3297 18.9984 22.5302C18.5372 22.7307 18.1496 22.9947 17.8355 23.3222C17.5214 23.653 17.2875 24.0306 17.1338 24.4616C16.98 24.8927 16.9032 25.3271 16.9032 25.7715C16.9032 26.2327 16.98 26.6804 17.1338 27.1182C17.2875 27.5559 17.5214 27.9402 17.8355 28.2677C18.1496 28.5985 18.5372 28.8658 18.9984 29.073C19.4595 29.2802 19.9941 29.3838 20.609 29.3838H22.2664C22.6507 29.3838 22.9782 29.4506 23.2555 29.5809C23.5329 29.7113 23.7601 29.8783 23.9472 30.0855C24.131 30.2927 24.268 30.5299 24.3616 30.7973C24.4552 31.0646 24.4986 31.3386 24.4986 31.6126C24.4986 32.2108 24.3148 32.7354 23.9472 33.1898C23.5763 33.6443 23.0183 33.8682 22.2664 33.8682H20.6324C19.2991 33.8682 18.1262 33.6409 17.1137 33.1898C16.1012 32.7387 15.2625 32.1372 14.5942 31.3854C13.9258 30.6335 13.4246 29.7848 13.0871 28.8324C12.7496 27.8834 12.5825 26.901 12.5825 25.8885C12.5825 24.876 12.7563 23.8769 13.1005 22.8877C13.4446 21.8986 13.9693 21.0198 14.6777 20.2546C15.3828 19.4894 16.2583 18.8678 17.3008 18.39C18.3434 17.9155 19.5698 17.6782 20.9799 17.6782H22.2664C22.634 17.6782 22.9615 17.7451 23.2455 17.8754C23.5295 18.0057 23.7668 18.1795 23.9573 18.3933C24.1477 18.6072 24.2948 18.8511 24.395 19.1184C24.4953 19.3858 24.5454 19.6665 24.5454 19.9572C24.5454 20.2479 24.4953 20.5319 24.395 20.8093C24.2948 21.0866 24.1511 21.3272 23.9573 21.5344C23.7668 21.7416 23.5262 21.912 23.2455 22.039C22.9615 22.1693 22.6373 22.2361 22.2664 22.2361H20.6324V22.2295Z" fill="white"/>
<path d="M38.6195 31.7295C38.6195 32.4646 38.3956 33.0227 37.9512 33.3969C37.5067 33.7712 36.9788 33.9617 36.3639 33.9617C35.7658 33.9617 35.2478 33.7745 34.8101 33.3969C34.3723 33.0227 34.1551 32.4646 34.1551 31.7295V27.8867H30.5228V31.7295C30.5228 32.4646 30.2989 33.0227 29.8545 33.3969C29.4101 33.7712 28.8821 33.9617 28.2673 33.9617C27.6691 33.9617 27.1512 33.7745 26.7134 33.3969C26.2757 33.0227 26.0585 32.4646 26.0585 31.7295V19.8134C26.0585 19.1083 26.2757 18.5636 26.7134 18.1794C27.1512 17.7951 27.6691 17.6046 28.2673 17.6046C28.8821 17.6046 29.4101 17.7951 29.8545 18.1794C30.2989 18.5636 30.5228 19.1083 30.5228 19.8134V23.6763H34.1585V19.8134C34.1585 19.1083 34.3757 18.5636 34.8134 18.1794C35.2512 17.7951 35.7691 17.6046 36.3673 17.6046C36.9821 17.6046 37.5101 17.7951 37.9545 18.1794C38.3989 18.5636 38.6228 19.1083 38.6228 19.8134V31.7295H38.6195Z" fill="white"/>
<path d="M53.503 26.921C53.503 31.6594 51.3343 34.0285 46.9936 34.0285C42.5927 34.0285 40.3906 31.6594 40.3906 26.921V24.8726C40.3906 24.1675 40.6112 23.6229 41.0589 23.2386C41.5034 22.8543 42.0247 22.6638 42.6228 22.6638C43.2377 22.6638 43.7623 22.8543 44.2 23.2386C44.6378 23.6229 44.855 24.1675 44.855 24.8726V27.6127C44.855 28.9326 45.5534 29.5909 46.9468 29.5909C48.3436 29.5909 49.0386 28.9326 49.0386 27.6127V24.8726C49.0386 24.5184 49.0988 24.2043 49.2224 23.9303C49.3461 23.6529 49.5065 23.4257 49.707 23.2386C49.9075 23.0548 50.1414 22.9144 50.4087 22.8142C50.676 22.7139 50.9567 22.6638 51.2474 22.6638C51.8589 22.6638 52.3902 22.8543 52.8347 23.2386C53.2791 23.6229 53.503 24.1675 53.503 24.8726V26.921Z" fill="white"/>
<path d="M26.2227 48.3438C25.6246 48.3438 25.0799 48.0297 24.5887 47.4014L22.9313 45.2394V52.1632C22.9313 52.885 22.7074 53.4363 22.263 53.8206C21.8185 54.2049 21.3039 54.3954 20.7225 54.3954C20.1076 54.3954 19.5797 54.2082 19.1352 53.8306C18.6908 53.4564 18.4669 52.8983 18.4669 52.1632V40.4075C18.4669 40.0399 18.5304 39.7058 18.6641 39.4084C18.7944 39.111 18.9682 38.8604 19.182 38.6599C19.3959 38.4594 19.6465 38.3057 19.9305 38.1987C20.2146 38.0918 20.5086 38.0383 20.8161 38.0383C21.2137 38.0383 21.6147 38.1352 22.0123 38.3257C22.41 38.5162 22.7575 38.7969 23.0482 39.1644L26.2227 43.2345L29.4206 39.1644C29.7113 38.7969 30.0522 38.5162 30.4432 38.3257C30.8341 38.1352 31.2284 38.0383 31.6294 38.0383C31.9368 38.0383 32.2309 38.0918 32.5149 38.1987C32.799 38.3057 33.0529 38.4594 33.2735 38.6599C33.494 38.8604 33.6711 39.1076 33.8014 39.4084C33.9318 39.7058 33.9986 40.0399 33.9986 40.4075V52.1632C33.9986 52.8983 33.7747 53.4564 33.3303 53.8306C32.8858 54.2049 32.3579 54.3954 31.743 54.3954C31.1449 54.3954 30.6269 54.2082 30.1892 53.8306C29.7514 53.4564 29.5342 52.8983 29.5342 52.1632V45.2394L27.9002 47.4014C27.6396 47.7557 27.3722 47.9996 27.0949 48.1366C26.8209 48.2769 26.5302 48.3438 26.2227 48.3438Z" fill="white"/>
<path d="M38.0912 54.302C36.6176 54.302 35.8824 53.5501 35.8824 52.0464V40.3609C35.8824 38.8572 36.6176 38.1053 38.0912 38.1053H45.6833C46.3884 38.1053 46.9364 38.3292 47.3274 38.7737C47.7183 39.2181 47.9155 39.7461 47.9155 40.3609C47.9155 40.9758 47.7217 41.5037 47.3274 41.9482C46.9364 42.3926 46.3884 42.6165 45.6833 42.6165H40.3234V44.157H44.7844C45.4293 44.157 45.9306 44.3608 46.2915 44.7651C46.6524 45.1728 46.8328 45.6506 46.8328 46.202C46.8328 46.7534 46.6524 47.2346 46.2915 47.6389C45.9306 48.0466 45.4293 48.247 44.7844 48.247H40.3234V49.8109H45.6833C46.3884 49.8109 46.9364 50.0281 47.3274 50.4659C47.7183 50.9036 47.9155 51.4282 47.9155 52.0431C47.9155 52.6579 47.7217 53.1859 47.3274 53.6303C46.9364 54.0748 46.3884 54.2987 45.6833 54.2987H38.0912V54.302Z" fill="white"/>
<path d="M44.875 19.6965C44.875 20.9363 43.8692 21.9387 42.6328 21.9387C41.3931 21.9387 40.3906 20.9329 40.3906 19.6965C40.3906 18.4568 41.3964 17.4543 42.6328 17.4543C43.8726 17.4543 44.875 18.4568 44.875 19.6965Z" fill="white"/>
<path d="M53.5038 19.6965C53.5038 20.9363 52.498 21.9387 51.2616 21.9387C50.0219 21.9387 49.0194 20.9329 49.0194 19.6965C49.0194 18.4568 50.0252 17.4543 51.2616 17.4543C52.5013 17.4543 53.5038 18.4568 53.5038 19.6965Z" fill="white"/>
</svg>
